HIERARCHY
ROOT Base
{
	OFFSET 0.0 0.0 0.0
	CHANNELS 0
	JOINT Door
	{
		OFFSET 0.375 0.0 0.15625
		CHANNELS 3 Xrotation Yrotation Zrotation
		End Site
		{
			OFFSET 0.0 0.0 0.0
		}
	}
}
MOTION
Frames: 21
Frame Time: 0.041667
0.0 0.00 0.0
0.0 8.00 0.0
0.0 16.0 0.0
0.0 24.0 0.0
0.0 32.0 0.0 
0.0 40.0 0.0 
0.0 48.0 0.0 
0.0 56.0 0.0 
0.0 64.0 0.0 
0.0 72.0 0.0 
0.0 80.0 0.0 
0.0 72.0 0.0 
0.0 64.0 0.0 
0.0 56.0 0.0
0.0 48.0 0.0 
0.0 40.0 0.0 	
0.0 32.0 0.0
0.0 24.0 0.0 
0.0 16.0 0.0 
0.0 8.00 0.0 
0.0 0.00 0.0	
